# Blender v3.3.1 OBJ File: ''
# www.blender.org
mtllib arrow.mtl
o Cube.001
v 0.325781 -0.734537 0.184933
v 0.434688 -0.818827 0.047270
v 0.182090 0.511697 0.184933
v 0.324437 0.508843 0.000046
v 0.253695 0.499468 0.062273
v -0.278046 -0.790852 0.184933
v -0.395143 -0.872970 0.020047
v -0.323521 -0.817637 0.075841
v 0.000000 -1.413984 0.047270
v 0.712976 -0.384615 0.078643
v 0.597759 -0.384615 0.125311
v -0.723246 -0.399170 0.138466
v -0.683599 -0.384615 0.154326
v -0.368216 -0.806479 0.184933
v -0.420406 -0.838382 0.123971
v -0.368481 -0.909476 0.128876
v -0.324679 -0.874405 0.184933
v -0.050527 -1.249763 0.184933
v -0.050527 -1.344805 0.128876
v 0.278708 -0.384615 0.184933
v 0.278708 0.452856 0.184933
v 0.324437 0.445742 0.139204
v 0.324437 0.561886 0.149596
v 0.289100 0.558849 0.184933
v 0.378991 -0.661684 0.184933
v 0.132034 -0.662641 0.184933
v 0.350785 -0.686258 0.162639
v -0.269189 -0.384615 0.184933
v -0.324437 -0.384615 0.129684
v -0.631627 -0.445828 0.184933
v -0.379685 -0.445828 0.184933
v 0.494262 -0.503859 0.184933
v 0.370166 -0.503859 0.184933
v 0.324437 -0.384615 0.139204
v -0.233323 1.000000 -0.184933
v -0.324437 -0.384615 -0.093819
v -0.233323 -0.384615 -0.184933
v -0.415551 -0.384615 -0.184933
v 0.271514 -0.384615 -0.184933
v 0.350899 -0.384615 -0.158471
v 0.000000 -1.413984 -0.109484
v 0.676377 -0.384615 -0.184933
v -0.006168 -1.294509 -0.184933
v 0.212638 0.934783 0.187594
v -0.235807 0.908191 0.188291
v -0.308164 1.000000 0.145958
v 0.324437 0.936604 0.149596
v 0.264478 1.000000 0.149251
v 0.271514 1.000000 -0.184933
v 0.324437 0.936604 -0.132009
v -0.324437 0.948400 0.129684
v -0.324437 0.948400 -0.093819
v -0.272837 1.000000 -0.145418
v 0.708931 -0.443344 -0.109484
v 0.751825 -0.384615 -0.044868
v 0.615502 -0.443344 -0.184933
v 0.593779 -0.384615 -0.184933
v -0.581530 -0.506747 -0.184933
v -0.686339 -0.384615 -0.184933
v -0.536356 -0.384615 -0.184933
v -0.662623 -0.506747 -0.119446
v -0.751825 -0.384615 0.014930
vt 0.645391 0.500000
vt 0.839895 0.500000
vt 0.855120 0.526709
vt 0.868730 0.723656
vt 0.648101 0.725882
vt 0.451923 0.719091
vt 0.451923 0.750000
vt 0.451923 0.750000
vt 0.412701 0.037890
vt 0.000000 0.000000
vt 0.415429 0.111450
vt 0.563605 0.625031
vt 0.000000 0.000000
vt 0.563962 0.804844
vt 0.556607 0.767619
vt 0.555718 0.719091
vt 0.387272 0.776867
vt 0.425774 0.760867
vt 0.431147 0.805445
vt 0.431218 0.758604
vt 0.443012 0.753703
vt 0.443012 0.765195
vt 0.451923 0.767619
vt 0.451923 0.978714
vt 0.447349 0.974213
vt 0.447349 0.983632
vt 0.420398 0.887195
vt 0.421566 0.877065
vt 0.415322 0.871530
vt 0.375000 0.093049
vt 0.380170 0.037890
vt 0.418014 0.041205
vt 0.450259 0.031408
vt 0.451923 0.114909
vt 0.442796 0.205736
vt 0.375000 0.199003
vt 0.451923 0.041375
vt 0.451923 0.037344
vt 0.451923 0.188414
vt 0.451923 0.250000
vt 0.451923 0.250000
vt 0.451923 0.250000
vt 0.451923 0.699362
vt 0.419475 0.656951
vt 0.451923 0.594673
vt 0.451923 0.500000
vt 0.451923 0.500000
vt 0.451923 0.535772
vt 0.451923 0.750000
vt 0.451923 0.656951
vt 0.411296 0.000000
vt 0.384801 0.000000
vt 0.451923 0.000000
vt 0.451923 0.000000
vt 0.570236 0.726115
vt 0.569856 0.763615
vt 0.620128 0.791855
vt 0.620128 0.978714
vt 0.625000 0.479609
vt 0.617076 0.535772
vt 0.451923 0.479609
vt 0.380170 0.728912
vt 0.375000 0.656951
vt 0.000000 0.000000
vt 0.419530 0.000000
vt 0.618550 0.037344
vt 0.618550 0.188414
vt 0.444926 0.000000
vt 0.449259 0.020687
vt 0.449503 0.019814
vt 0.451923 1.000000
vt 0.451923 1.000000
vt 0.449295 0.710033
vt 0.451923 0.669401
vt 0.451923 0.250000
vt 0.625000 0.285105
vt 0.451923 0.285105
vt 0.625000 0.243172
vt 0.447534 0.485737
vt 0.375631 0.250000
vt 0.383928 0.264376
vt 0.447534 0.484792
vt 0.375000 0.550997
vt 0.447534 0.550997
vt 0.375631 0.205736
vt 0.442796 0.251930
vt 0.451923 0.500000
vt 0.625000 0.784002
vt 0.625000 0.978714
vt 0.617075 0.726115
vt 0.625000 0.037344
vt 0.625000 0.188414
vt 0.620128 0.000000
vt 0.625000 0.026344
vt 0.451923 0.500000
vt 0.449623 0.492030
vt 0.452201 0.245728
vt 0.449592 0.205736
vt 0.449592 0.250000
vn 0.0000 1.0000 0.0000
vn 0.6216 0.4767 0.6216
vn -0.7313 0.5723 0.3711
vn 0.3938 0.8723 0.2897
vn 0.0000 0.0000 1.0000
vn -0.8091 -0.5876 0.0139
vn -0.0080 1.0000 0.0039
vn 0.5710 -0.4171 0.7071
vn -0.7907 0.5465 0.2760
vn -0.5710 -0.4171 0.7071
vn -0.4361 0.7872 0.4361
vn 0.7071 0.0000 0.7071
vn 0.3847 -0.8696 0.3096
vn 0.0026 -0.0022 1.0000
vn 0.5192 0.0134 -0.8546
vn 0.5008 -0.3658 0.7845
vn 0.0026 -0.6735 0.7391
vn 0.1328 0.3580 0.9242
vn 0.3677 -0.8519 0.3729
vn 0.3078 -0.9255 0.2208
vn 0.1683 -0.9713 0.1683
vn -0.8483 0.4734 0.2373
vn -1.0000 0.0000 0.0000
vn -0.4040 0.1110 0.9080
vn 0.0330 0.5733 0.8187
vn 0.3719 0.1363 0.9182
vn 0.0321 0.3974 0.9171
vn -0.7071 -0.0000 -0.7071
vn 0.0000 0.0000 -1.0000
vn 0.5710 -0.4171 -0.7071
vn 0.8110 -0.5836 0.0411
vn -0.5891 -0.4343 -0.6814
vn 0.0000 0.0072 -1.0000
vn -0.0141 0.4555 0.8901
vn 0.4303 0.0708 0.8999
vn 0.7451 0.6669 0.0085
vn 0.9989 0.0096 0.0470
vn -0.8431 0.5347 -0.0578
vn -0.6182 0.0047 0.7860
vn 0.8740 -0.1204 -0.4708
vn 0.5265 -0.5457 -0.6519
vn -0.8965 -0.3316 -0.2938
vn -0.5530 -0.4746 -0.6848
usemtl None
s off
f 49/1/1 35/2/1 53/3/1 46/4/1 48/5/1
f 34/6/2 20/7/2 33/8/2
f 16/9/3 8/10/3 7/11/3
f 4/12/4 5/13/4 3/14/4 21/15/4 22/16/4
f 18/17/5 1/18/5 26/19/5 25/20/5 32/21/5 33/22/5 20/23/5 28/24/5 31/25/5 30/26/5 14/27/5 6/28/5 17/29/5
f 9/30/6 19/31/6 16/9/6 7/11/6 15/32/6 12/33/6 62/34/6 61/35/6 41/36/6
f 12/33/7 13/37/7 29/38/7 36/39/7 38/40/7 60/41/7 59/42/7 62/34/7
f 10/43/8 32/21/8 25/20/8 2/44/8
f 55/45/1 42/46/1 57/47/1 40/48/1 34/6/1 11/49/1 10/50/1
f 17/51/9 8/10/9 16/9/9
f 16/9/10 19/31/10 18/52/10 17/51/10
f 28/53/11 29/38/11 31/54/11
f 21/15/12 20/23/12 34/6/12 22/16/12
f 5/13/13 4/12/13 23/55/13 24/56/13 3/14/13
f 20/23/14 21/15/14 3/14/14 24/56/14 44/57/14 45/58/14 28/24/14
f 49/59/15 50/60/15 40/48/15 39/61/15
f 1/18/8 18/17/8 19/62/8 9/63/8 2/44/8
f 25/20/16 27/64/16 1/18/16 2/44/16
f 27/64/17 25/20/17 26/19/17
f 1/18/18 27/64/18 26/19/18
f 15/32/19 7/11/19 8/10/19
f 14/65/20 15/32/20 8/10/20
f 8/10/21 6/28/21 14/27/21
f 8/10/22 17/29/22 6/28/22
f 29/38/23 51/66/23 52/67/23 36/39/23
f 30/68/24 13/69/24 12/70/24
f 30/26/25 31/25/25 29/71/25 13/72/25
f 14/65/10 30/68/10 12/33/10 15/32/10
f 11/73/26 32/21/26 10/43/26
f 11/74/27 34/6/27 33/22/27 32/21/27
f 36/39/1 37/75/1 38/40/1
f 35/76/28 37/77/28 36/39/28 52/67/28 53/78/28
f 37/77/29 35/76/29 49/59/29 39/61/29
f 54/79/30 41/80/30 43/81/30 56/82/30
f 41/83/31 54/84/31 55/45/31 10/50/31 2/44/31 9/63/31
f 41/85/32 61/35/32 58/86/32 43/81/32
f 43/81/33 58/86/33 60/41/33 38/40/33 37/77/33 39/61/33 40/87/33 57/47/33 56/82/33
f 48/88/34 46/89/34 45/58/34 44/57/34
f 48/5/35 44/57/35 24/56/35 23/55/35 47/90/35
f 49/1/36 48/5/36 47/90/36 50/60/36
f 40/48/37 50/60/37 47/90/37 23/55/37 4/12/37 22/16/37 34/6/37
f 46/91/38 53/92/38 52/67/38 51/66/38
f 28/53/39 45/93/39 46/94/39 51/66/39 29/38/39
f 54/79/40 42/46/40 55/95/40
f 42/46/29 56/82/29 57/96/29
f 54/79/41 56/82/41 42/46/41
f 58/86/29 59/97/29 60/41/29
f 59/98/42 61/35/42 62/34/42
f 58/86/43 61/35/43 59/99/43
l 2 27
l 42 59
